# xmcd CD database file
#
# Track frame offsets:
#	150
#	13063
#	24639
#	38834
#	52527
#	64660
#	78799
#	96449
#	116050
#	126846
#
# Disc length: 1944 seconds
#
# Revision: 0
# Processed by: cddbd v1.5.1PL0 Copyright (c) Steve Scherf et al.
# Submitted via: CDex 1.51
#
DISCID=7707960a
DTITLE=Ray Kuran - Not In Vain
DYEAR=2004
DGENRE=Country
TTITLE0=Forgiveness
TTITLE1=Tumbleweed
TTITLE2=Fear
TTITLE3=What'cha Gonna Do
TTITLE4=Ladies of the Night Time
TTITLE5=Speed
TTITLE6=Tall Man
TTITLE7=To The People I Meet
TTITLE8=Spirits Lost and Found
TTITLE9=Not In Vain
EXTD=YEAR: 2004
EXTT0=
EXTT1=
EXTT2=
EXTT3=
EXTT4=
EXTT5=
EXTT6=
EXTT7=
EXTT8=
EXTT9=
PLAYORDER=
